<mxfile host="app.diagrams.net" modified="2020-12-11T08:54:44.621Z" agent="5.0 (Windows NT 6.1; Win64; x64) AppleWebKit/537.36 (KHTML, like Gecko) Chrome/87.0.4280.88 Safari/537.36" etag="WJ8RcjtRLF8G4KmKXvKx" version="13.10.9" type="github">
  <diagram id="3UGGi-txFNUZRDkhmxeD" name="第 1 页">
    <mxGraphModel dx="716" dy="556" grid="1" gridSize="10" guides="1" tooltips="1" connect="1" arrows="1" fold="1" page="1" pageScale="1" pageWidth="827" pageHeight="1169" math="0" shadow="0">
      <root>
        <mxCell id="0" />
        <mxCell id="1" parent="0" />
        <mxCell id="Z4IKQ2vD6G3WBSsJCPkD-1" value="应用层" style="rounded=1;whiteSpace=wrap;html=1;shadow=1;fontSize=16;fillColor=#cce5ff;strokeColor=#36393d;" vertex="1" parent="1">
          <mxGeometry x="220" y="200" width="120" height="60" as="geometry" />
        </mxCell>
        <mxCell id="Z4IKQ2vD6G3WBSsJCPkD-2" value="表示层" style="rounded=1;whiteSpace=wrap;html=1;shadow=1;fontSize=16;fillColor=#cce5ff;strokeColor=#36393d;" vertex="1" parent="1">
          <mxGeometry x="220" y="260" width="120" height="60" as="geometry" />
        </mxCell>
        <mxCell id="Z4IKQ2vD6G3WBSsJCPkD-3" value="会话层" style="rounded=1;whiteSpace=wrap;html=1;shadow=1;fontSize=16;fillColor=#cce5ff;strokeColor=#36393d;" vertex="1" parent="1">
          <mxGeometry x="220" y="320" width="120" height="60" as="geometry" />
        </mxCell>
        <mxCell id="Z4IKQ2vD6G3WBSsJCPkD-4" value="传输层" style="rounded=1;whiteSpace=wrap;html=1;shadow=1;fontSize=16;fillColor=#ffcc99;strokeColor=#36393d;" vertex="1" parent="1">
          <mxGeometry x="220" y="380" width="120" height="60" as="geometry" />
        </mxCell>
        <mxCell id="Z4IKQ2vD6G3WBSsJCPkD-5" value="网络层" style="rounded=1;whiteSpace=wrap;html=1;shadow=1;fontSize=16;fillColor=#ffcc99;strokeColor=#36393d;" vertex="1" parent="1">
          <mxGeometry x="220" y="440" width="120" height="60" as="geometry" />
        </mxCell>
        <mxCell id="Z4IKQ2vD6G3WBSsJCPkD-6" value="数据链路层" style="rounded=1;whiteSpace=wrap;html=1;shadow=1;fontSize=16;fillColor=#f9f7ed;strokeColor=#36393d;" vertex="1" parent="1">
          <mxGeometry x="220" y="500" width="120" height="60" as="geometry" />
        </mxCell>
        <mxCell id="Z4IKQ2vD6G3WBSsJCPkD-7" value="物理层" style="rounded=1;whiteSpace=wrap;html=1;shadow=1;fontSize=16;fillColor=#f9f7ed;strokeColor=#36393d;" vertex="1" parent="1">
          <mxGeometry x="220" y="560" width="120" height="60" as="geometry" />
        </mxCell>
        <mxCell id="Z4IKQ2vD6G3WBSsJCPkD-15" value="应用层" style="rounded=1;whiteSpace=wrap;html=1;shadow=1;fontSize=16;fillColor=#cce5ff;strokeColor=#36393d;" vertex="1" parent="1">
          <mxGeometry x="430" y="200" width="120" height="180" as="geometry" />
        </mxCell>
        <mxCell id="Z4IKQ2vD6G3WBSsJCPkD-16" value="传输层" style="rounded=1;whiteSpace=wrap;html=1;shadow=1;fontSize=16;fillColor=#ffcc99;strokeColor=#36393d;" vertex="1" parent="1">
          <mxGeometry x="430" y="380" width="120" height="60" as="geometry" />
        </mxCell>
        <mxCell id="Z4IKQ2vD6G3WBSsJCPkD-17" value="网络层" style="rounded=1;whiteSpace=wrap;html=1;shadow=1;fontSize=16;fillColor=#ffcc99;strokeColor=#36393d;" vertex="1" parent="1">
          <mxGeometry x="430" y="440" width="120" height="60" as="geometry" />
        </mxCell>
        <mxCell id="Z4IKQ2vD6G3WBSsJCPkD-18" value="网络接口层" style="rounded=1;whiteSpace=wrap;html=1;shadow=1;fontSize=16;fillColor=#f9f7ed;strokeColor=#36393d;" vertex="1" parent="1">
          <mxGeometry x="430" y="500" width="120" height="120" as="geometry" />
        </mxCell>
        <mxCell id="Z4IKQ2vD6G3WBSsJCPkD-19" value="OSI 参考模式" style="text;html=1;align=center;verticalAlign=middle;resizable=0;points=[];autosize=1;fontSize=16;" vertex="1" parent="1">
          <mxGeometry x="225" y="170" width="110" height="20" as="geometry" />
        </mxCell>
        <mxCell id="Z4IKQ2vD6G3WBSsJCPkD-20" value="TCP/IP 模型" style="text;html=1;align=center;verticalAlign=middle;resizable=0;points=[];autosize=1;fontSize=16;" vertex="1" parent="1">
          <mxGeometry x="445" y="170" width="100" height="20" as="geometry" />
        </mxCell>
      </root>
    </mxGraphModel>
  </diagram>
</mxfile>
